<svg width="512" height="512" viewBox="0 0 512 512" fill="none" xmlns="http://www.w3.org/2000/svg">
<g clip-path="url(#clip0_2_2)">
<mask id="mask0_2_2" style="mask-type:luminance" maskUnits="userSpaceOnUse" x="0" y="0" width="512" height="512">
<path d="M432 0H80C35.8172 0 0 35.8172 0 80V432C0 476.183 35.8172 512 80 512H432C476.183 512 512 476.183 512 432V80C512 35.8172 476.183 0 432 0Z" fill="white"/>
</mask>
<g mask="url(#mask0_2_2)">
<path d="M512 0H0V512H512V0Z" fill="#0B0D13"/>
</g>
<path fill-rule="evenodd" clip-rule="evenodd" d="M222.801 444.978C187.817 401.734 86.95 328.24 105.677 213.729C125.487 92.5885 295.834 27.5197 398.106 158.038C424.982 192.348 433.273 247.464 429.065 273.839C417.063 348.962 379.057 361.208 370.778 381.623C367.61 389.446 373.952 431.895 413.445 392.133C430.217 375.256 440.857 357.767 450.299 338.203C482.89 270.686 464.421 168.836 403.692 108.568C343.518 48.8609 247.318 31.4675 181.676 59.8468C52.1434 115.839 29.0041 275.304 109.664 374.201C131.168 400.567 187.873 444.118 222.801 444.978ZM238.366 285.722C212.964 252.923 217.693 218.864 247.051 205.361C272.508 193.66 312.022 209.877 315.451 247.306C318.399 279.428 275.484 293.998 303.036 315.056C317.403 326.042 328.242 316.084 338.879 303.269C362.546 274.753 359.315 227.844 336.08 197.131C266.873 105.653 112.755 205.549 212.108 315.567C234.192 340.027 307.56 433.084 323.463 446.169L361.888 431.613C321.983 383.01 275.984 334.289 238.366 285.722ZM212.253 404.657C221.184 415.48 242.303 445.307 252.612 450.818C259.944 454.737 291.57 452.931 300.02 449.623L188.456 314.646C92.9886 196.909 272.145 65.9589 358.94 198.431C380.072 230.679 377.561 287.244 353.072 315.277C341.929 328.035 325.629 336.76 334.572 353.796C361.649 405.402 467.54 257.263 373.285 153.965C285.06 57.2679 123.867 106.284 121.428 241.915C120.137 313.669 159.325 340.981 212.253 404.657Z" fill="#4DF29B"/>
</g>
<defs>
<clipPath id="clip0_2_2">
<rect width="512" height="512" fill="white"/>
</clipPath>
</defs>
</svg>
