<svg width="512" height="512" viewBox="145 -15 165 165" xmlns="http://www.w3.org/2000/svg">
  <!-- тёмный фон в тоне сайта (#0b0d13) -->
  <rect width="512" height="512" fill="#0b0d13"/>
  <!-- скруглённые углы через clipPath -->
  <defs>
    <clipPath id="round">
      <rect width="512" height="512" rx="80" ry="80"/>
    </clipPath>
  </defs>
  <rect width="512" height="512" fill="#0b0d13" clip-path="url(#round)"/>
  <g clip-path="url(#round)">
    <path fill-rule="evenodd" clip-rule="evenodd" d="M216.801 128.401C205.527 114.465 173.021 90.7804 179.056 53.8774C185.44 14.8381 240.337 -6.13132 273.296 35.9303C281.957 46.9871 284.629 64.7493 283.273 73.2488C279.405 97.4584 267.157 101.405 264.489 107.984C263.468 110.505 265.512 124.185 278.239 111.371C283.644 105.932 287.073 100.296 290.116 93.9912C300.619 72.2328 294.667 39.4102 275.096 19.9876C255.704 0.746197 224.702 -4.85908 203.548 4.28658C161.804 22.3308 154.347 73.7211 180.341 105.592C187.271 114.089 205.545 128.124 216.801 128.401ZM221.817 77.0784C213.631 66.5085 215.155 55.5323 224.616 51.1809C232.82 47.4099 245.554 52.6363 246.659 64.6981C247.609 75.0501 233.779 79.7456 242.658 86.5316C247.288 90.072 250.781 86.8629 254.209 82.7331C261.836 73.5435 260.795 58.4264 253.307 48.5284C231.004 19.0485 181.337 51.2414 213.355 86.6963C220.472 94.5789 244.116 124.568 249.241 128.785L261.624 124.094C248.764 108.431 233.94 92.73 221.817 77.0784ZM213.402 115.407C216.28 118.895 223.086 128.507 226.408 130.283C228.771 131.546 238.963 130.964 241.686 129.898L205.733 86.3997C174.967 48.457 232.703 6.2563 260.674 48.9476C267.484 59.3399 266.675 77.569 258.783 86.603C255.192 90.7145 249.939 93.5262 252.821 99.0162C261.547 115.647 295.672 67.9071 265.297 34.6177C236.865 3.45548 184.918 19.2517 184.132 62.9608C183.716 86.0849 196.345 94.8864 213.402 115.407Z" fill="#4DF29B"/>
  </g>
</svg>