<svg xmlns="http://www.w3.org/2000/svg" xml:space="preserve" viewBox="258 355 582 92" width="100%" height="100%">
<path fill="#2b2a29" d="M329.7 423.06q0 3.943-3.942 3.942h-3.114q-3.942 0-3.942-3.941v-21.655h-53.82v21.655q0 3.941-3.941 3.941h-3.26q-3.893 0-3.893-3.941v-53.09q0-3.893 3.893-3.893h3.26q3.941 0 3.942 3.893v22.287h53.82V369.97q0-3.893 3.94-3.893h3.115q3.941 0 3.941 3.893zm172.019-12.262c0 7.007-3.844 11.76-11.549 14.258q-3.528 1.143-8.273 1.655c-1.735.194-3.26.291-4.558.291h-47.153q-3.893 0-3.893-3.941v-53.09q0-3.893 3.893-3.893h45.774c5.159 0 9.1.308 11.793.909 3.828.843 7.023 2.481 9.586 4.882 2.92 2.692 4.38 5.888 4.38 9.554v4.704c0 3.682-1.298 6.731-3.91 9.18-.372.341-.567.747-.567 1.184 0 .292.097.6.292.958l.275.421c2.612 2.4 3.91 5.45 3.91 9.133zm-10.9-24.201-.195-5.142q-.34-6.326-14.404-6.326h-38.54v17.129h38.913c6.862 0 11.306-1.103 13.317-3.325.633-.698.941-1.476.909-2.336m-.195 20.6c.065-3.86-4.542-5.79-13.804-5.79h-39.432v16.447h38.751c8.613 0 13.43-1.914 14.485-5.742zm97.566 3.455q0 16.35-28.223 16.35h-17.275c-13.463 0-22.141-3-26.034-8.986-1.427-2.19-2.141-4.623-2.141-7.315v-28.078q0-16.545 28.126-16.545h17.324c8.467 0 14.68.778 18.67 2.336 6.374 2.465 9.554 7.201 9.554 14.21zm-11.094-.26v-27.558c0-5.142-5.629-7.705-16.87-7.705h-17.648c-11.305 0-16.966 2.563-16.966 7.705v27.558c0 4.98 5.66 7.462 16.966 7.462h17.68c11.225 0 16.838-2.482 16.838-7.462m104.492 10.43-36.204-51.127c-1.735-2.481-3.925-3.714-6.553-3.714-1.93 0-3.617.6-5.045 1.8-.502.422-1.037 1.038-1.605 1.866l-36.27 51.208c-.762 1.087-1.135 2.109-1.135 3.05 0 2.06 1.444 3.097 4.33 3.097h1.234c2.757 0 4.525-.567 5.32-1.703l33.171-47.007 32.977 47.007c.794 1.136 2.53 1.703 5.223 1.703h.81c.227 0 .39-.016.52-.048 2.887-.26 4.33-1.298 4.33-3.147 0-.974-.372-1.979-1.103-2.985m76.156-24.412-.098 1.282c-.194 2.482-1.492 3.714-3.909 3.714h-53.479v10.008c0 4.299 4.753 6.44 14.258 6.44h39.221c2.612 0 3.91 1.314 3.91 3.958v1.232c0 2.645-1.298 3.958-3.91 3.958h-39.724c-1.233 0-2.774-.097-4.606-.291-13.496-1.395-20.243-6.36-20.243-14.924v-30.17c0-5.71 3.309-9.943 9.927-12.733 4.444-1.865 9.732-2.806 15.88-2.806h10.835q3.893 0 3.893 3.893v1.233c0 2.611-1.298 3.925-3.893 3.925h-11.258l-3.098.195c-7.542.47-11.305 2.563-11.305 6.277v10.657h53.641c2.823 0 4.136 1.379 3.958 4.153m31.159 21.459 27.948-39.578 27.754 39.578zm34.502-48.175c-1.752-2.481-3.926-3.714-6.554-3.714-1.946 0-3.617.6-5.044 1.8-.503.422-1.038 1.038-1.622 1.866l-34.112 48.223h-7.607q-3.942 0-3.942 3.942v1.249q0 3.942 3.942 3.941h96.285q3.942 0 3.941-3.941v-1.25c0-2.627-1.151-3.94-3.47-3.94h-7.706z"/>
  <path fill="#fff" stroke="#fff" stroke-miterlimit="22.926" stroke-width=".288" d="M329.7 423.06q0 3.943-3.942 3.942h-3.114q-3.942 0-3.942-3.941v-21.655h-53.82v21.655q0 3.941-3.941 3.941h-3.26q-3.893 0-3.893-3.941v-53.09q0-3.893 3.893-3.893h3.26q3.941 0 3.942 3.893v22.287h53.82V369.97q0-3.893 3.94-3.893h3.115q3.941 0 3.941 3.893zm172.019-12.262c0 7.007-3.844 11.76-11.549 14.258q-3.528 1.143-8.273 1.655c-1.735.194-3.26.291-4.558.291h-47.153q-3.893 0-3.893-3.941v-53.09q0-3.893 3.893-3.893h45.774c5.159 0 9.1.308 11.793.909 3.828.843 7.023 2.481 9.586 4.882 2.92 2.692 4.38 5.888 4.38 9.554v4.704c0 3.682-1.298 6.731-3.91 9.18-.372.341-.567.747-.567 1.184 0 .292.097.6.292.958l.275.421c2.612 2.4 3.91 5.45 3.91 9.133zm-10.9-24.201-.195-5.142q-.34-6.326-14.404-6.326h-38.54v17.129h38.913c6.862 0 11.306-1.103 13.317-3.325.633-.698.941-1.476.909-2.336zm-.195 20.6c.065-3.86-4.542-5.79-13.804-5.79h-39.432v16.447h38.751c8.613 0 13.43-1.914 14.485-5.742zm97.566 3.455q0 16.35-28.223 16.35h-17.275c-13.463 0-22.141-3-26.034-8.986-1.427-2.19-2.141-4.623-2.141-7.315v-28.078q0-16.545 28.126-16.545h17.324c8.467 0 14.68.778 18.67 2.336 6.374 2.465 9.554 7.201 9.554 14.21zm-11.094-.26v-27.558c0-5.142-5.629-7.705-16.87-7.705h-17.648c-11.305 0-16.966 2.563-16.966 7.705v27.558c0 4.98 5.66 7.462 16.966 7.462h17.68c11.225 0 16.838-2.482 16.838-7.462zm104.492 10.43-36.204-51.127c-1.735-2.481-3.925-3.714-6.553-3.714-1.93 0-3.617.6-5.045 1.8-.502.422-1.037 1.038-1.605 1.866l-36.27 51.208c-.762 1.087-1.135 2.109-1.135 3.05 0 2.06 1.444 3.097 4.33 3.097h1.234c2.757 0 4.525-.567 5.32-1.703l33.171-47.007 32.977 47.007c.794 1.136 2.53 1.703 5.223 1.703h.81c.227 0 .39-.016.52-.048 2.887-.26 4.33-1.298 4.33-3.147 0-.974-.372-1.979-1.103-2.985zm76.156-24.412-.098 1.282c-.194 2.482-1.492 3.714-3.909 3.714h-53.479v10.008c0 4.299 4.753 6.44 14.258 6.44h39.221c2.612 0 3.91 1.314 3.91 3.958v1.232c0 2.645-1.298 3.958-3.91 3.958h-39.724c-1.233 0-2.774-.097-4.606-.291-13.496-1.395-20.243-6.36-20.243-14.924v-30.17c0-5.71 3.309-9.943 9.927-12.733 4.444-1.865 9.732-2.806 15.88-2.806h10.835q3.893 0 3.893 3.893v1.233c0 2.611-1.298 3.925-3.893 3.925h-11.258l-3.098.195c-7.542.47-11.305 2.563-11.305 6.277v10.657h53.641c2.823 0 4.136 1.379 3.958 4.153zm31.159 21.46 27.948-39.578 27.754 39.578zm34.502-48.175c-1.752-2.481-3.926-3.714-6.554-3.714-1.946 0-3.617.6-5.044 1.8-.503.422-1.038 1.038-1.622 1.866l-34.112 48.223h-7.607q-3.942 0-3.942 3.942v1.249q0 3.942 3.942 3.941h96.285q3.942 0 3.941-3.941v-1.25c0-2.627-1.151-3.94-3.47-3.94h-7.706z"/>
  <path fill="#4df29b" fill-rule="evenodd" d="M371.912 431.481c-6.17-7.613-23.96-20.551-20.657-40.71 3.494-21.326 33.538-32.781 51.576-9.804 4.74 6.04 6.202 15.743 5.46 20.386-2.117 13.225-8.82 15.381-10.28 18.975-.559 1.377.56 8.85 7.525 1.85 2.958-2.971 4.835-6.05 6.5-9.494 5.748-11.886 2.491-29.816-8.22-40.426-10.613-10.511-27.58-13.573-39.157-8.577-22.846 9.857-26.927 37.93-12.701 55.34 3.793 4.642 13.794 12.309 19.954 12.46m2.745-28.036c-4.48-5.774-3.646-11.77 1.532-14.147 4.49-2.06 11.459.795 12.064 7.384.52 5.655-7.049 8.22-2.19 11.927 2.534 1.934 4.446.181 6.322-2.075 4.174-5.02 3.604-13.278-.494-18.685-12.206-16.104-39.388 1.482-21.865 20.85 3.895 4.306 16.835 20.688 19.64 22.992l6.777-2.563c-7.038-8.556-15.151-17.133-21.786-25.683m-4.605 20.938c1.575 1.905 5.3 7.156 7.118 8.126 1.293.69 6.871.372 8.361-.21l-19.676-23.762c-16.838-20.727 14.76-43.78 30.068-20.459 3.727 5.677 3.284 15.635-1.035 20.57-1.965 2.246-4.84 3.782-3.263 6.781 4.776 9.085 23.452-16.994 6.828-35.179-15.56-17.023-43.99-8.394-44.42 15.483-.228 12.632 6.684 17.44 16.019 28.65"/>
</svg>