<svg width="1121" height="131" viewBox="0 0 1121 131" fill="none" xmlns="http://www.w3.org/2000/svg">
<g clip-path="url(#clip0_5_8)">
<path d="M139.508 111.894C139.508 116.632 137.114 119.001 132.328 119H126.656C121.869 119 119.476 116.632 119.476 111.896V72.8592H21.4468V111.896C21.4468 116.632 19.0541 119 14.2687 119H8.3308C3.6036 119 1.23999 116.632 1.23999 111.896V16.1926C1.23999 11.5141 3.6036 9.17489 8.3308 9.17489H14.2687C19.0541 9.17489 21.4475 11.5141 21.4487 16.1926V56.3684H119.478V16.1908C119.478 11.5123 121.87 9.17307 126.654 9.17307H132.328C137.113 9.17307 139.506 11.5123 139.506 16.1908L139.508 111.894ZM452.827 89.7897C452.827 102.421 445.826 110.989 431.791 115.492C427.507 116.866 422.485 117.86 416.723 118.475C413.563 118.825 410.785 119 408.421 119H322.535C317.808 119 315.444 116.632 315.444 111.896V16.1926C315.444 11.5141 317.808 9.17489 322.535 9.17489H405.909C415.306 9.17489 422.484 9.7301 427.389 10.8135C434.361 12.3331 440.181 15.2859 444.849 19.614C450.168 24.4668 452.827 30.2281 452.827 36.8367V45.3164C452.827 51.9538 450.463 57.4501 445.705 61.8648C445.028 62.4795 444.673 63.2113 444.673 63.9991C444.673 64.5255 444.849 65.0807 445.204 65.7261L445.705 66.485C450.463 70.8113 452.827 76.3094 452.827 82.9486V89.7897ZM432.974 46.1636L432.618 36.8943C432.206 29.2919 423.46 25.4907 406.383 25.4907H336.185V56.3684H407.062C419.561 56.3684 427.655 54.3801 431.318 50.3746C432.471 49.1164 433.032 47.7139 432.974 46.1636ZM432.618 83.2983C432.737 76.3401 424.345 72.861 407.475 72.861H335.653V102.509H406.235C421.923 102.509 430.697 99.059 432.618 92.1584V83.2983ZM610.327 89.5265C610.327 109.176 593.192 119 558.921 119H527.456C502.934 119 487.128 113.592 480.037 102.801C477.438 98.8535 476.138 94.4676 476.138 89.6148V38.9998C476.138 19.1165 493.214 9.17489 527.367 9.17489H558.921C574.343 9.17489 585.66 10.5774 592.927 13.3859C604.537 17.8294 610.329 26.3668 610.329 39.0016L610.327 89.5265ZM590.12 89.0578V39.3802C590.12 30.111 579.868 25.4907 559.393 25.4907H527.249C506.657 25.4907 496.346 30.111 496.346 39.3802V89.0578C496.346 98.0351 506.656 102.509 527.249 102.509H559.451C579.897 102.509 590.12 98.0351 590.12 89.0578ZM780.444 107.86L714.502 15.6951C711.341 11.2227 707.353 9 702.566 9C699.051 9 695.978 10.0816 693.377 12.2448C692.463 13.0055 691.488 14.116 690.454 15.6086L624.39 107.919C623.003 109.879 622.323 111.721 622.323 113.417C622.323 117.131 624.953 119 630.21 119H632.458C637.479 119 640.699 117.978 642.147 115.93L702.566 31.1925L762.631 115.93C764.077 117.978 767.239 119 772.144 119H773.62C774.033 119 774.33 118.971 774.567 118.913C779.825 118.445 782.453 116.574 782.453 113.24C782.453 111.485 781.776 109.673 780.444 107.86ZM919.157 63.8531L918.978 66.1641C918.625 70.6383 916.261 72.8592 911.858 72.8592H814.45V90.9002C814.45 98.6498 823.108 102.509 840.42 102.509H911.858C916.616 102.509 918.98 104.878 918.98 109.644V111.865C918.98 116.633 916.616 119 911.858 119H839.504C837.258 119 834.451 118.825 831.115 118.475C806.533 115.961 794.244 107.01 794.244 91.5725V37.1864C794.244 26.8932 800.271 19.2626 812.325 14.2331C820.419 10.8712 830.051 9.17489 841.249 9.17489H860.984C865.711 9.17489 868.075 11.5141 868.075 16.1926V18.4153C868.075 23.1221 865.711 25.4907 860.984 25.4907H840.479L834.836 25.8423C821.099 26.6895 814.245 30.4625 814.245 37.1576V56.3684H911.948C917.089 56.3684 919.481 58.8543 919.157 63.8549M975.91 102.538L1026.82 31.1925L1077.37 102.538H975.91ZM1038.75 15.6951C1035.56 11.2227 1031.6 9 1026.82 9C1023.27 9 1020.23 10.0816 1017.63 12.2448C1016.71 13.0055 1015.74 14.116 1014.67 15.6086L952.542 102.538H938.686C933.899 102.538 931.506 104.907 931.506 109.644V111.896C931.506 116.633 933.899 119.001 938.686 119H1114.06C1118.85 119 1121.24 116.632 1121.24 111.896V109.642C1121.24 104.907 1119.14 102.54 1114.92 102.54H1100.88L1038.75 15.6951Z" fill="#2B2A29"/>
<path d="M139.508 111.894C139.508 116.632 137.114 119.001 132.328 119H126.656C121.869 119 119.476 116.632 119.476 111.896V72.8592H21.4468V111.896C21.4468 116.632 19.0541 119 14.2687 119H8.3308C3.6036 119 1.23999 116.632 1.23999 111.896V16.1926C1.23999 11.5141 3.6036 9.17489 8.3308 9.17489H14.2687C19.0541 9.17489 21.4475 11.5141 21.4487 16.1926V56.3684H119.478V16.1908C119.478 11.5123 121.87 9.17307 126.654 9.17307H132.328C137.113 9.17307 139.506 11.5123 139.506 16.1908L139.508 111.894ZM452.827 89.7897C452.827 102.421 445.826 110.989 431.791 115.492C427.507 116.866 422.485 117.86 416.723 118.475C413.563 118.825 410.785 119 408.421 119H322.535C317.808 119 315.444 116.632 315.444 111.896V16.1926C315.444 11.5141 317.808 9.17489 322.535 9.17489H405.909C415.306 9.17489 422.484 9.7301 427.389 10.8135C434.361 12.3331 440.181 15.2859 444.849 19.614C450.168 24.4668 452.827 30.2281 452.827 36.8367V45.3164C452.827 51.9538 450.463 57.4501 445.705 61.8648C445.028 62.4795 444.673 63.2113 444.673 63.9991C444.673 64.5255 444.849 65.0807 445.204 65.7261L445.705 66.485C450.463 70.8113 452.827 76.3094 452.827 82.9486V89.7897ZM432.974 46.1636L432.618 36.8943C432.206 29.2919 423.46 25.4907 406.383 25.4907H336.185V56.3684H407.062C419.561 56.3684 427.655 54.3801 431.318 50.3746C432.471 49.1164 433.032 47.7139 432.974 46.1636ZM432.618 83.2983C432.737 76.3401 424.345 72.861 407.475 72.861H335.653V102.509H406.235C421.923 102.509 430.697 99.059 432.618 92.1584V83.2983ZM610.327 89.5265C610.327 109.176 593.192 119 558.921 119H527.456C502.934 119 487.128 113.592 480.037 102.801C477.438 98.8535 476.138 94.4676 476.138 89.6148V38.9998C476.138 19.1165 493.214 9.17489 527.367 9.17489H558.921C574.343 9.17489 585.66 10.5774 592.927 13.3859C604.537 17.8294 610.329 26.3668 610.329 39.0016L610.327 89.5265ZM590.12 89.0578V39.3802C590.12 30.111 579.868 25.4907 559.393 25.4907H527.249C506.657 25.4907 496.346 30.111 496.346 39.3802V89.0578C496.346 98.0351 506.656 102.509 527.249 102.509H559.451C579.897 102.509 590.12 98.0351 590.12 89.0578ZM780.444 107.86L714.502 15.6951C711.341 11.2227 707.353 9 702.566 9C699.051 9 695.978 10.0816 693.377 12.2448C692.463 13.0055 691.488 14.116 690.454 15.6086L624.39 107.919C623.003 109.879 622.323 111.721 622.323 113.417C622.323 117.131 624.953 119 630.21 119H632.458C637.479 119 640.699 117.978 642.147 115.93L702.566 31.1925L762.631 115.93C764.077 117.978 767.239 119 772.144 119H773.62C774.033 119 774.33 118.971 774.567 118.913C779.825 118.445 782.453 116.574 782.453 113.24C782.453 111.485 781.776 109.673 780.444 107.86ZM919.157 63.8531L918.978 66.1641C918.625 70.6383 916.261 72.8592 911.858 72.8592H814.45V90.9002C814.45 98.6498 823.108 102.509 840.42 102.509H911.858C916.616 102.509 918.98 104.878 918.98 109.644V111.865C918.98 116.633 916.616 119 911.858 119H839.504C837.258 119 834.451 118.825 831.115 118.475C806.533 115.961 794.244 107.01 794.244 91.5725V37.1864C794.244 26.8932 800.271 19.2626 812.325 14.2331C820.419 10.8712 830.051 9.17489 841.249 9.17489H860.984C865.711 9.17489 868.075 11.5141 868.075 16.1926V18.4153C868.075 23.1221 865.711 25.4907 860.984 25.4907H840.479L834.836 25.8423C821.099 26.6895 814.245 30.4625 814.245 37.1576V56.3684H911.948C917.089 56.3684 919.481 58.8543 919.157 63.8549V63.8531ZM975.91 102.538L1026.82 31.1925L1077.37 102.538H975.91ZM1038.75 15.6951C1035.56 11.2227 1031.6 9 1026.82 9C1023.27 9 1020.23 10.0816 1017.63 12.2448C1016.71 13.0055 1015.74 14.116 1014.67 15.6086L952.542 102.538H938.686C933.899 102.538 931.506 104.907 931.506 109.644V111.896C931.506 116.633 933.899 119.001 938.686 119H1114.06C1118.85 119 1121.24 116.632 1121.24 111.896V109.642C1121.24 104.907 1119.14 102.54 1114.92 102.54H1100.88L1038.75 15.6951Z" fill="white" stroke="white" stroke-width="0.288" stroke-miterlimit="22.926"/>
<path fill-rule="evenodd" clip-rule="evenodd" d="M216.801 128.401C205.527 114.465 173.021 90.7804 179.056 53.8774C185.44 14.8381 240.337 -6.13132 273.296 35.9303C281.957 46.9871 284.629 64.7493 283.273 73.2488C279.405 97.4584 267.157 101.405 264.489 107.984C263.468 110.505 265.512 124.185 278.239 111.371C283.644 105.932 287.073 100.296 290.116 93.9912C300.619 72.2328 294.667 39.4102 275.096 19.9876C255.704 0.746197 224.702 -4.85908 203.548 4.28658C161.804 22.3308 154.347 73.7211 180.341 105.592C187.271 114.089 205.545 128.124 216.801 128.401ZM221.817 77.0784C213.631 66.5085 215.155 55.5323 224.616 51.1809C232.82 47.4099 245.554 52.6363 246.659 64.6981C247.609 75.0501 233.779 79.7456 242.658 86.5316C247.288 90.072 250.781 86.8629 254.209 82.7331C261.836 73.5435 260.795 58.4264 253.307 48.5284C231.004 19.0485 181.337 51.2414 213.355 86.6963C220.472 94.5789 244.116 124.568 249.241 128.785L261.624 124.094C248.764 108.431 233.94 92.73 221.817 77.0784ZM213.402 115.407C216.28 118.895 223.086 128.507 226.408 130.283C228.771 131.546 238.963 130.964 241.686 129.898L205.733 86.3997C174.967 48.457 232.703 6.2563 260.674 48.9476C267.484 59.3399 266.675 77.569 258.783 86.603C255.192 90.7145 249.939 93.5262 252.821 99.0162C261.547 115.647 295.672 67.9071 265.297 34.6177C236.865 3.45548 184.918 19.2517 184.132 62.9608C183.716 86.0849 196.345 94.8864 213.402 115.407Z" fill="#4DF29B"/>
</g>
<defs>
<clipPath id="clip0_5_8">
<rect width="1121" height="131" fill="white"/>
</clipPath>
</defs>
</svg>
